# xmcd CD database file
#
# Track frame offsets:
#	150
#	41587
#	69462
#	110937
#	133640
#	171112
#
# Disc length: 2915 seconds
#
# Revision: 3
# Processed by: cddbd v1.5.1PL0 Copyright (c) Steve Scherf et al.
# Submitted via: CDex 1.51
#
DISCID=540b6106
DTITLE=Keith Jarrett - My Song
DYEAR=1978
DGENRE=Jazz
TTITLE0=Questar
TTITLE1=My Song
TTITLE2=Tabarka
TTITLE3=Country
TTITLE4=Mandala
TTITLE5=The Journey Home
EXTD=YEAR: 1978
EXTT0=
EXTT1=
EXTT2=
EXTT3=
EXTT4=
EXTT5=
PLAYORDER=
